<svg xmlns="http://www.w3.org/2000/svg" viewBox="0 0 512 512" width="512" height="512" role="img" aria-label="Modus PH">
  <!-- maskable: glifo dentro de la zona segura (~64% central) sobre fondo lleno -->
  <rect width="512" height="512" fill="#0F766E"/>
  <rect x="196" y="176" width="120" height="166" rx="8" fill="#ffffff"/>
  <g fill="#0F766E">
    <rect x="210" y="192" width="18" height="18" rx="3"/>
    <rect x="247" y="192" width="18" height="18" rx="3"/>
    <rect x="284" y="192" width="18" height="18" rx="3"/>
    <rect x="210" y="226" width="18" height="18" rx="3"/>
    <rect x="247" y="226" width="18" height="18" rx="3"/>
    <rect x="284" y="226" width="18" height="18" rx="3"/>
    <rect x="210" y="260" width="18" height="18" rx="3"/>
    <rect x="247" y="260" width="18" height="18" rx="3"/>
    <rect x="284" y="260" width="18" height="18" rx="3"/>
  </g>
  <rect x="241" y="300" width="30" height="42" rx="4" fill="#14B8A6"/>
  <rect x="180" y="338" width="152" height="10" rx="5" fill="#14B8A6"/>
</svg>
