<svg xmlns="http://www.w3.org/2000/svg" width="1024" height="1024" viewBox="0 0 100 100">
  <path d="M 45.64 18.84 Q 50.00 16.40 54.36 18.84 L 75.24 30.54 Q 79.60 32.99 75.18 35.32 L 54.42 46.27 Q 50.00 48.60 45.58 46.27 L 24.82 35.32 Q 20.40 32.99 24.76 30.54 Z" fill="#7b9be8"></path>
  <path d="M 19.80 39.20 Q 19.72 34.20 24.07 36.67 L 44.43 48.22 Q 48.78 50.69 48.86 55.69 L 49.21 78.80 Q 49.29 83.79 45.00 81.22 L 24.52 68.92 Q 20.24 66.34 20.16 61.34 Z" fill="#2c5bcb"></path>
  <path d="M 75.93 36.67 Q 80.28 34.20 80.20 39.20 L 79.84 61.34 Q 79.76 66.34 75.48 68.92 L 55.00 81.22 Q 50.71 83.79 50.79 78.80 L 51.14 55.69 Q 51.22 50.69 55.57 48.22 Z" fill="#1a3c86"></path>
</svg>